<?xml version="1.0" encoding="utf-8"?>
<!-- Generator: Adobe Illustrator 24.1.0, SVG Export Plug-In . SVG Version: 6.00 Build 0)  -->
<svg version="1.1" id="Capa_1" xmlns="http://www.w3.org/2000/svg" xmlns:xlink="http://www.w3.org/1999/xlink" x="0px" y="0px"
	 viewBox="0 0 3620 1082.6" style="enable-background:new 0 0 3620 1082.6;" xml:space="preserve">
<style type="text/css">
	.st0{fill:#41B883;}
	.st1{fill:#35495E;}
	.st2{fill:#35495E;stroke:#35495E;stroke-width:20;stroke-miterlimit:10;}
</style>
<g>
	<path class="st0" d="M440.8,813C224,813,45,641,39.4,424.8C33.7,205,209.3,21.6,430.8,15.9c90.3-2.4,179.7,26,251.7,79.7
		l-74.7,100.2c-50.4-37.6-110.5-56.6-173.8-54.9c-152.6,3.9-273.6,129.9-269.7,280.7c3.8,148.4,127.2,266.5,276.5,266.5
		c2.4,0,4.9,0,7.3-0.1c71.2-1.8,138.2-30.3,188.6-80.1l87.8,88.9C651.5,769,554.5,810.2,451.4,812.9C447.8,813,444.3,813,440.8,813z
		"/>
</g>
<g>
	<polygon class="st1" points="409.1,415.2 669.4,742.3 773,742.1 512.8,415.2 773.4,88.1 770.7,86.4 670.9,86.5 	"/>
</g>
<g>
	<polygon class="st1" points="968.5,741.6 708.4,414.4 604.8,414.4 864.8,741.6 604,1068.4 606.7,1070.1 706.4,1070.1 	"/>
</g>
<g>
	<path class="st0" d="M1280,492.6c0,127.5-77.5,195.1-172,195.1c-97.8,0-166.5-75.8-166.5-187.9c0-117.6,73.1-194.5,172-194.5
		C1214.6,305.2,1280,382.7,1280,492.6z M992.6,498.6c0,79.1,42.9,150,118.2,150c75.8,0,118.7-69.8,118.7-153.9
		c0-73.6-38.5-150.6-118.2-150.6C1032.2,344.2,992.6,417.3,992.6,498.6z"/>
	<path class="st0" d="M1340.4,502.5c0-34.1-1.1-61.5-2.2-86.8h43.4l2.2,45.6h1.1c19.8-32.4,51.1-51.7,94.5-51.7
		c64.3,0,112.7,54.4,112.7,135.2c0,95.6-58.3,142.9-120.9,142.9c-35.2,0-65.9-15.4-81.9-41.8h-1.1v144.5h-47.8V502.5z M1388.3,573.4
		c0,7.1,1.1,13.7,2.2,19.8c8.8,33.5,37.9,56.6,72.5,56.6c51.1,0,80.8-41.8,80.8-102.8c0-53.3-28-98.9-79.1-98.9
		c-33,0-63.7,23.6-73.1,59.9c-1.6,6-3.3,13.2-3.3,19.8V573.4z"/>
	<path class="st0" d="M1680.1,557.4c1.1,65.4,42.9,92.3,91.2,92.3c34.6,0,55.5-6,73.6-13.7l8.2,34.6c-17,7.7-46.2,16.5-88.5,16.5
		c-81.9,0-130.8-53.9-130.8-134.1c0-80.2,47.3-143.4,124.7-143.4c86.8,0,109.9,76.4,109.9,125.3c0,9.9-1.1,17.6-1.6,22.5H1680.1z
		 M1821.8,522.8c0.6-30.8-12.6-78.6-67-78.6c-48.9,0-70.3,45.1-74.2,78.6H1821.8z"/>
	<path class="st0" d="M1928.4,487.6c0-27.5-0.5-50-2.2-72h42.9l2.7,44h1.1c13.2-25.3,44-50,87.9-50c36.8,0,94,22,94,113.2v158.8
		h-48.4V528.3c0-42.9-15.9-78.6-61.5-78.6c-31.9,0-56.6,22.5-64.8,49.5c-2.2,6-3.3,14.3-3.3,22.5v159.9h-48.4V487.6z"/>
	<path class="st2" d="M2228.5,623.4c21.4,13.2,52.8,24.2,85.7,24.2c48.9,0,77.5-25.8,77.5-63.2c0-34.6-19.8-54.4-69.8-73.6
		c-60.4-21.4-97.8-52.8-97.8-105c0-57.7,47.8-100.6,119.8-100.6c37.9,0,65.4,8.8,81.9,18.1l-13.2,39c-12.1-6.6-36.8-17.6-70.3-17.6
		c-50.6,0-69.8,30.2-69.8,55.5c0,34.6,22.5,51.7,73.6,71.4c62.6,24.2,94.5,54.4,94.5,108.8c0,57.2-42.3,106.6-129.7,106.6
		c-35.7,0-74.7-10.4-94.5-23.6L2228.5,623.4z"/>
	<path class="st2" d="M2504.4,291.5h48.4v390.2h-48.4V291.5z"/>
	<path class="st2" d="M2874.8,546.4c0,98.4-68.1,141.2-132.4,141.2c-72,0-127.5-52.8-127.5-136.8c0-89,58.3-141.2,131.9-141.2
		C2823.1,409.6,2874.8,465.1,2874.8,546.4z M2663.7,549.2c0,58.3,33.5,102.2,80.8,102.2c46.2,0,80.8-43.4,80.8-103.3
		c0-45.1-22.5-102.2-79.7-102.2C2688.5,445.9,2663.7,498.6,2663.7,549.2z"/>
	<path class="st2" d="M2994,339.3v76.4h69.2v36.8H2994v143.4c0,33,9.3,51.7,36.3,51.7c12.6,0,22-1.6,28-3.3l2.2,36.3
		c-9.3,3.8-24.2,6.6-42.9,6.6c-22.5,0-40.7-7.1-52.2-20.3c-13.7-14.3-18.7-37.9-18.7-69.2V452.5h-41.2v-36.8h41.2v-63.7L2994,339.3z
		"/>
</g>
<g>
	<path class="st1" d="M3250.5,691.6l-32.9-48.4h-21.3v48.4h-7.3V577.8h31.8c12.6,0,21.9,3,28,8.9c6.1,5.9,9.1,13.9,9.1,24.1
		c0,9.7-2.8,17.3-8.3,22.8c-5.5,5.5-13.6,8.7-24.1,9.4l33.4,48.6H3250.5z M3196.3,637.2h24.1c20.2,0,30.4-8.8,30.4-26.3
		c0-8.5-2.4-15-7.2-19.6c-4.8-4.6-12.5-6.9-23.2-6.9h-24.1V637.2z"/>
	<path class="st1" d="M3284.6,577.8v69.9c0,13.2,2.9,22.9,8.7,29.1s13.7,9.2,23.7,9.2c9.9,0,17.7-3.1,23.3-9.2s8.5-15.8,8.5-29.1
		v-69.9h7.4v69.9c0,15.2-3.5,26.5-10.6,33.9c-7.1,7.4-16.6,11.1-28.7,11.1c-12.2,0-21.8-3.7-29-11.1c-7.2-7.4-10.7-18.7-10.7-33.9
		v-69.9H3284.6z"/>
	<path class="st1" d="M3388.7,685.6h42.5v6h-49.7V577.8h7.3V685.6z"/>
	<path class="st1" d="M3454.7,583.9v47.8h46v5.8h-46v48h50.9v6.1h-58.1V577.8h58.1v6.1H3454.7z"/>
	<path class="st1" d="M3589.2,677.6c-2.3,4.5-5.8,8.1-10.7,10.9c-4.8,2.8-10.9,4.2-18.2,4.2c-7,0-13.2-1.3-18.7-4
		c-5.5-2.7-9.8-6.3-13.1-10.8c-3.2-4.5-5.1-9.4-5.7-14.7h7.6c0.5,3.4,1.9,7,4.1,10.7c2.2,3.7,5.5,6.7,9.8,9.2
		c4.3,2.5,9.6,3.7,15.8,3.7c8,0,14.1-2.2,18.4-6.6c4.3-4.4,6.5-9.9,6.5-16.5c0-5.7-1.3-10.3-4-13.7c-2.7-3.4-6-6.1-9.9-7.9
		c-3.9-1.8-9.3-3.8-16.1-5.8c-7.2-2.2-13-4.2-17.3-6.2c-4.3-2-7.9-5-10.9-9.1c-3-4.1-4.4-9.5-4.4-16.1c0-8.2,2.9-14.9,8.6-20.2
		c5.7-5.3,13.6-7.9,23.7-7.9c10.2,0,18.3,2.6,24.3,7.7c6,5.1,9.7,11.2,11.1,18.3h-7.7c-1.1-5.1-3.9-9.7-8.6-13.8
		c-4.6-4.1-11-6.2-19.1-6.2c-7.4,0-13.4,1.9-17.8,5.7c-4.5,3.8-6.7,9.2-6.7,16.2c0,5.4,1.3,9.7,3.9,13c2.6,3.3,5.8,5.8,9.6,7.6
		c3.8,1.8,9,3.6,15.6,5.6c7.3,2.2,13.2,4.3,17.6,6.4c4.4,2.1,8.2,5.2,11.2,9.4c3.1,4.2,4.6,9.8,4.6,17
		C3592.6,668.4,3591.5,673.1,3589.2,677.6z"/>
</g>
</svg>
